HIERARCHY
ROOT Hips
{
	OFFSET -10.056300 7.733760 -472.550000
	CHANNELS 6 Xposition Yposition Zposition Zrotation Yrotation Xrotation 
	JOINT Spine
	{
		OFFSET 0.000000 0.000000 0.000000
		CHANNELS 3 Zrotation Yrotation Xrotation
		JOINT Spine1
		{
			OFFSET 19.000000 0.000000 0.000000
			CHANNELS 3 Zrotation Yrotation Xrotation
			JOINT Neck
			{
				OFFSET 22.500000 0.600000 0.000000
				CHANNELS 3 Zrotation Yrotation Xrotation
				JOINT Head
				{
					OFFSET 14.000000 0.030878 0.000000
					CHANNELS 3 Zrotation Yrotation Xrotation
					End Site
					{
						OFFSET 17.000000 0.000000 0.000000
					}
				}
			}
			JOINT LeftShoulder
			{
				OFFSET 19.800000 3.700000 4.300000
				CHANNELS 3 Zrotation Yrotation Xrotation
				JOINT LeftArm
				{
					OFFSET 8.000000 0.000000 0.000000
					CHANNELS 3 Zrotation Yrotation Xrotation
					JOINT LeftForeArm
					{
						OFFSET 15.200000 0.000000 0.000000
						CHANNELS 3 Zrotation Yrotation Xrotation
						JOINT LeftHand
						{
							OFFSET 17.800000 0.000000 0.000000
							CHANNELS 3 Zrotation Yrotation Xrotation
							End Site
							{
								OFFSET 7.200000 0.000000 0.000000
							}
						}
					}
				}
			}
			JOINT RightShoulder
			{
				OFFSET 19.800000 3.700000 -4.300000
				CHANNELS 3 Zrotation Yrotation Xrotation
				JOINT RightArm
				{
					OFFSET 8.000000 0.000000 0.151654
					CHANNELS 3 Zrotation Yrotation Xrotation
					JOINT RightForeArm
					{
						OFFSET 15.200000 0.000000 0.000000
						CHANNELS 3 Zrotation Yrotation Xrotation
						JOINT RightHand
						{
							OFFSET 17.800000 0.000000 0.000000
							CHANNELS 3 Zrotation Yrotation Xrotation
							End Site
							{
								OFFSET 7.200000 0.000000 0.000000
							}
						}
					}
				}
			}
		}
	}
	JOINT LeftUpLeg
	{
		OFFSET 5.984250 -7.666000 4.788790
		CHANNELS 3 Zrotation Yrotation Xrotation
		JOINT LeftLeg
		{
			OFFSET 16.000000 0.000000 0.000000
			CHANNELS 3 Zrotation Yrotation Xrotation
			JOINT LeftFoot
			{
				OFFSET 18.000000 0.000000 0.000000
				CHANNELS 3 Zrotation Yrotation Xrotation
				End Site
				{
					OFFSET 0.000000 -10.800000 0.000000
				}
			}
		}
	}
	JOINT RightUpLeg
	{
		OFFSET 5.984250 -7.665980 -4.788790
		CHANNELS 3 Zrotation Yrotation Xrotation
		JOINT RightLeg
		{
			OFFSET 16.000000 0.000000 0.000000
			CHANNELS 3 Zrotation Yrotation Xrotation
			JOINT RightFoot
			{
				OFFSET 18.000000 0.000000 0.000000
				CHANNELS 3 Zrotation Yrotation Xrotation
				End Site
				{
					OFFSET 0.000000 -10.800000 0.000000
				}
			}
		}
	}
	JOINT Tail
	{
		OFFSET 6.836960 -0.722574 0.000000
		CHANNELS 3 Zrotation Yrotation Xrotation
		JOINT Tail1
		{
			OFFSET 12.000000 0.000000 0.000000
			CHANNELS 3 Zrotation Yrotation Xrotation
			End Site
			{
				OFFSET 12.000000 0.000000 0.000000
			}
		}
	}
}
MOTION
Frames: 16
Frame Time: 0.033333
-542353.312500 -200205.062500 -360257.406250 69.170662 -13.994618 13.573753 -147.861313 -7.050154 7.725451 -74.481842 -22.366009 -3.278201 -22.296251 -16.220421 15.245379 -47.976418 25.848001 166.568466 75.447861 -39.022472 -109.674240 40.648132 -52.038895 51.395851 -48.930668 -72.890526 140.328262 -149.900406 -28.955339 174.290237 -12.223018 28.176216 -155.915298 75.441330 -63.039707 107.922684 123.266113 -14.970305 -127.114594 76.343246 41.811279 -33.059063 -159.741653 -34.926544 9.931876 92.556992 17.249815 84.364334 118.014297 -43.621689 -59.115162 -158.722412 -8.104975 25.453218 41.713055 72.132080 -7.217819 107.541931 -32.837807 -54.022652 109.710182 -38.017235 45.277401 13.116315 31.251743 67.323082 
-543263.687500 -204734.640625 -364003.437500 76.438728 -14.689257 18.361303 -148.470520 -7.419652 8.348928 -73.280731 -21.391512 -4.254840 -21.466690 -15.122224 13.455462 -48.773750 24.077993 165.738022 74.619438 -42.535919 -107.745392 37.994736 -52.011166 54.711594 -35.181446 -77.006294 127.071991 -151.328201 -27.860674 166.992157 -16.229094 26.267290 -155.939941 83.318619 -60.986736 104.451759 121.406021 -14.240673 -125.124947 71.592957 51.921341 -29.559568 -162.717743 -35.214504 10.606662 96.533997 14.335689 81.663612 116.879929 -44.214817 -60.175495 -159.460892 -9.234913 25.683662 31.593605 68.538094 -15.735819 115.482704 -26.285290 -52.872505 112.971031 -33.456043 37.410904 8.143540 31.442377 58.689762 
-542092.187500 -211623.781250 -367246.625000 82.977913 -7.908614 29.346193 -148.881882 -7.730113 9.336691 -82.311562 -12.199135 5.133650 -19.543312 -12.534191 11.292965 -32.840664 37.239815 177.856644 88.309975 -48.352161 -119.254669 30.636293 -60.227425 56.062244 101.512161 -78.432999 -8.356991 -155.760056 -26.888014 161.206024 -35.936863 26.577147 -162.895844 88.386055 -54.461746 104.011871 121.183380 -14.026220 -123.434204 97.481445 66.275299 -3.702379 -166.546326 -34.175579 11.817808 101.136238 11.786523 78.539421 120.240143 -53.331871 -58.692852 -156.484390 -0.090339 27.096485 26.436989 79.899498 -19.124947 120.337547 -15.447742 -41.691162 121.022041 -22.585463 23.330633 0.579014 30.943941 39.720142 
-543865.187500 -212475.750000 -370551.312500 94.795715 -11.188459 24.769547 -142.449036 -12.482421 2.459139 -82.730865 -19.130224 5.418795 -26.750130 -2.649719 15.614826 -41.666721 30.419294 170.977859 81.643394 -60.296082 -111.978828 16.825970 -55.330807 74.977455 115.154091 -80.754288 -20.220686 -149.871460 -33.363415 158.453949 -32.663506 16.306742 -156.201233 90.493462 -60.093872 103.620956 134.594833 -10.682104 -122.075935 115.739273 65.714012 20.288923 -165.216736 -41.322590 18.081289 108.236771 -3.095388 73.377274 124.345116 -43.332104 -59.738865 -150.012390 -9.102614 31.341810 39.560444 66.919327 -4.680339 137.158112 -3.772998 -45.933392 123.199463 -25.471243 8.545760 -13.048872 29.446682 4.563561 
-551258.812500 -206163.500000 -374005.000000 88.180519 -10.923768 22.085648 -134.243073 -16.118290 -5.551579 -73.612045 -24.713551 1.927336 -34.082043 8.588328 19.564970 -48.902138 24.099966 165.135818 71.636917 -54.565697 -102.125565 24.331455 -49.125557 71.926857 79.429810 -77.470230 13.027535 -142.098969 -29.531940 150.131668 -30.573503 5.842288 -149.505157 89.730415 -66.035339 104.429413 134.749084 -1.820916 -115.687637 113.441231 70.080292 24.715136 -175.068619 -31.792511 26.870586 100.627380 -6.574839 69.908646 131.562134 -41.015377 -76.137802 -153.261322 -16.576290 37.638100 26.548347 54.632359 -9.394032 138.410004 -0.149988 -50.434299 135.022095 -26.256304 -9.998507 -14.037947 15.742808 -37.316532 
-561955.125000 -199048.500000 -377455.656250 88.846909 -11.922671 24.964666 -134.528198 -16.828131 -5.319655 -72.843781 -23.343052 2.103364 -35.103191 9.434051 15.185521 -47.712917 24.011843 166.066696 73.782150 -64.408508 -113.687798 29.528934 -48.128246 61.501240 79.075745 -62.745502 21.111303 -145.487366 -22.488527 151.041321 -34.686462 0.467719 -148.348831 84.293343 -62.873371 106.926765 138.619751 -3.441532 -112.452507 126.910164 73.122635 44.089027 -176.319427 -29.460209 27.795551 100.552444 -6.889012 66.865402 132.831924 -40.715183 -78.274940 -149.657379 -18.083384 37.030506 22.890732 50.535770 -13.019961 149.259537 2.059017 -47.295296 141.370926 -23.371927 -25.589296 -13.933112 5.954958 -81.860107 
-569694.000000 -188235.171875 -382357.750000 82.038116 -11.711394 28.787931 -134.834518 -17.496145 -5.065904 -71.813431 -21.439062 1.728109 -35.547173 10.878340 13.566940 -46.383274 26.332397 166.621124 82.159157 -61.849407 -122.025558 28.110357 -47.231205 63.707993 85.731270 -58.758675 14.232896 -149.571793 -18.827555 154.063568 -39.256618 -4.919898 -146.540192 69.690559 -59.059666 113.484154 140.459061 -6.133950 -107.349174 118.984215 84.858284 36.963406 -176.492828 -28.233416 28.897060 96.302971 -6.123780 64.705162 133.086731 -40.062927 -77.509972 -145.500229 -19.665442 36.445957 20.967342 46.701004 -15.960534 160.585770 1.397456 -43.164597 150.499619 -20.664059 -39.879723 -8.419692 0.131936 -116.323166 
-578947.000000 -182962.718750 -387702.500000 79.937103 -12.041782 29.377584 -135.265793 -18.082432 -4.812712 -70.569305 -19.134321 1.064050 -36.717632 10.265399 5.794858 -45.261604 26.345905 167.294281 90.058311 -56.337547 -129.600204 16.320721 -42.634525 72.142845 92.407089 -54.859535 6.588387 -152.536621 -17.639715 155.514084 -43.980953 -9.408049 -144.485367 48.826942 -53.848209 121.334846 143.858002 -13.048522 -101.503288 45.285233 83.647385 -30.184422 -177.799377 -37.201488 30.969105 88.349312 -4.316431 63.385738 129.968704 -43.554070 -77.052444 -141.632690 -20.964542 35.522430 20.357286 43.468826 -18.665817 171.450119 -2.750209 -38.384468 160.313171 -20.909143 -47.866550 -6.983749 1.075966 -133.313538 
-588533.187500 -181440.406250 -393532.312500 74.680824 -2.732650 35.812077 -135.806305 -18.855629 -4.514961 -69.173927 -16.608561 0.412095 -35.881374 12.936975 10.899796 -48.279270 33.386398 163.025085 97.663879 -48.455425 -137.054413 12.276051 -41.257317 75.181908 101.785210 -49.225418 -4.475353 -160.333893 -21.279701 158.376373 -48.594315 -12.487449 -142.609634 19.108852 -37.443199 133.351608 145.429657 -22.733793 -96.964577 29.843185 74.401291 -41.703251 -175.596542 -38.983929 30.362951 79.104866 -2.870142 62.837811 120.602600 -45.220814 -66.075363 -139.198334 -21.722479 34.609585 21.133076 41.107212 -20.725370 177.906235 -2.571330 -33.942303 173.432755 -21.498953 -48.621998 -1.921851 1.909229 -139.502014 
-600482.437500 -178803.031250 -399965.343750 65.103691 -7.634933 39.295319 -144.640411 -15.794950 3.941357 -75.244720 -6.407108 1.655237 -27.831608 5.359732 12.196284 -36.434093 35.530178 173.933578 116.521042 -32.620750 -146.654587 11.158269 -51.254192 76.252716 120.723808 -29.684776 -16.780590 -162.993622 -15.166946 153.485535 -58.818211 -9.785504 -146.164810 11.960537 -32.689384 123.713547 131.087463 -24.022415 -81.336647 60.413155 70.121651 -11.330854 -163.554779 -33.425522 20.089813 82.557350 -0.098304 62.730961 116.299469 -55.073414 -67.184540 -131.742218 -14.321922 27.825171 27.631733 48.551365 -25.857975 -172.508179 3.384676 -21.598688 -176.133057 -37.819519 -45.080429 -7.012355 -0.286898 -143.960739 
-611065.625000 -174836.187500 -406394.125000 59.437122 -6.684242 37.643265 -144.911331 -16.539755 4.038989 -73.377548 -3.226907 0.444500 -27.644789 4.782148 12.542641 -36.240635 35.507172 174.920197 120.814171 -21.189785 -151.490448 5.479274 -51.803036 82.531654 129.632477 -12.477480 -24.048887 -164.863251 -14.584189 147.531662 -62.273285 -9.624334 -145.596054 -3.313554 -27.347017 125.100288 125.315376 -23.603209 -69.442795 65.361229 61.309681 -10.385386 -160.559753 -33.446163 18.502842 79.401962 -0.197531 64.513763 115.395386 -55.010670 -66.065094 -132.843414 -13.687321 27.671436 29.119888 47.971821 -27.104576 -169.619965 1.530846 -16.037359 -169.019531 -53.576317 -40.302010 -10.774667 -1.744805 -144.078979 
-623021.750000 -178712.859375 -412212.062500 54.595242 -6.679677 35.486637 -145.153290 -17.294928 4.070911 -71.574196 0.375903 -0.981746 -27.890039 3.674752 13.441189 -35.752598 35.364609 177.266495 123.730576 -10.563126 -157.135162 -1.690893 -51.853958 90.932205 137.742828 7.855020 -29.257837 -166.758194 -13.934677 143.246094 -64.853493 -8.250429 -145.993134 -14.453648 -23.828104 126.462341 122.959518 -22.728653 -61.150585 74.106232 54.479763 -7.945364 -158.569031 -33.312553 16.968672 81.914665 -1.528793 67.755829 119.059982 -52.609329 -68.004608 -135.994202 -12.501881 28.172808 29.454777 47.822048 -28.395023 -167.357162 0.103057 -10.659573 -174.433167 -65.893486 -28.543930 -15.643340 -4.016487 -144.497162 
-640498.187500 -185907.500000 -417880.343750 49.876431 -7.460822 33.302246 -145.437683 -18.045938 4.043353 -69.900887 4.432915 -2.576938 -28.638243 2.466255 14.633241 -35.651939 35.054825 -179.923233 125.280800 -1.588695 -163.247665 -8.887550 -51.236820 99.264565 143.704910 25.398396 -33.206375 -169.003494 -11.645563 143.954910 -66.573212 -6.185436 -147.034546 -22.345787 -21.919085 128.482224 123.762924 -22.627899 -56.305225 79.438255 50.972103 -7.320512 -157.470398 -33.069057 15.420652 88.739059 -4.395538 71.527687 125.594917 -48.086082 -71.572342 -140.626190 -10.970601 29.640919 28.719206 47.620762 -29.856207 -165.442520 -0.879224 -5.983456 159.395218 -70.532997 -1.046568 -20.907562 -7.794640 -146.667786 
-657853.062500 -190205.281250 -423512.437500 45.729424 -9.453469 31.391453 -145.775162 -18.800797 3.961385 -68.286163 8.912627 -4.241921 -29.631329 1.306076 15.714654 -36.249668 34.498104 -177.599533 125.879570 4.449553 -169.903290 -14.805053 -49.670315 106.056183 145.742554 35.305416 -38.799084 -171.088409 -7.650013 148.700729 -67.530281 -4.109137 -148.151108 -27.842205 -21.025707 131.437592 125.892418 -23.034248 -53.537346 77.379173 49.626251 -10.837718 -157.479340 -32.693451 14.029223 98.221581 -8.519489 75.054688 132.143646 -42.524349 -75.031281 -146.594177 -8.530134 32.293709 27.853600 47.624210 -31.089148 -164.028625 -1.438689 -2.473270 133.868820 -64.253738 22.383440 -25.916372 -13.032123 -151.399078 
-677233.687500 -200196.718750 -428734.500000 42.563583 -13.173552 30.398783 -146.191864 -19.563414 3.813992 -66.570831 13.723913 -5.888624 -30.932686 0.586459 16.202642 -37.432499 33.758888 -176.175537 126.594025 7.928858 -176.307861 -19.308634 -46.796295 110.929047 145.007843 35.926922 -46.211544 -172.283051 -3.222507 155.495880 -67.846130 -2.707788 -148.722748 -31.540094 -20.244635 134.949402 127.553299 -22.713459 -51.157368 65.118271 48.563709 -19.661461 -158.266861 -32.533848 12.935440 106.935440 -12.840923 77.434776 136.908234 -37.553047 -77.932396 -153.385910 -4.388410 36.384476 28.223175 48.614178 -31.941668 -163.131516 -1.713729 0.018060 122.742752 -52.985580 29.652910 -29.092424 -18.661634 -158.269623 
-696741.125000 -206836.328125 -433035.312500 40.605610 -17.229445 31.139267 -146.608765 -20.379524 3.580814 -64.642891 18.750753 -7.431778 -32.100166 -0.015940 16.190329 -38.587368 33.098328 -175.005127 127.691338 9.276363 179.057968 -21.986443 -43.106865 113.460258 146.025574 28.871675 -51.267101 -172.587997 0.644798 162.459381 -67.529434 -2.173698 -148.581451 -33.394844 -18.962671 138.780594 127.435707 -21.214081 -48.171062 43.574894 43.162197 -33.045975 -159.064575 -32.682838 12.050861 112.699059 -16.260805 78.832390 139.570572 -33.947201 -80.418472 -160.681030 2.209150 41.642693 31.833662 51.354729 -31.525610 -163.713364 -1.780406 1.971376 116.848053 -41.599762 30.991114 -29.546370 -22.789848 -165.586258 
